<mxfile host="app.diagrams.net" modified="2024-02-13T11:18:19.189Z" agent="Mozilla/5.0 (Windows NT 10.0; Win64; x64) AppleWebKit/537.36 (KHTML, like Gecko) Chrome/121.0.0.0 Safari/537.36" etag="y1Kd5GcWjFF4JnUUmRGY" version="23.1.3" type="github">
  <diagram name="Страница — 1" id="VrByP3I6zBpE009r-6l7">
    <mxGraphModel dx="2529" dy="1683" grid="1" gridSize="10" guides="1" tooltips="1" connect="1" arrows="1" fold="1" page="1" pageScale="1" pageWidth="827" pageHeight="1169" math="0" shadow="0">
      <root>
        <mxCell id="0" />
        <mxCell id="1" parent="0" />
        <mxCell id="26dQbN8GHztbTEOQTdlS-1" value="hr_capital_bot" style="swimlane;whiteSpace=wrap;html=1;" vertex="1" parent="1">
          <mxGeometry x="-1654" y="-1160" width="1774" height="1240" as="geometry" />
        </mxCell>
        <mxCell id="26dQbN8GHztbTEOQTdlS-2" value="bot" style="swimlane;whiteSpace=wrap;html=1;" vertex="1" parent="26dQbN8GHztbTEOQTdlS-1">
          <mxGeometry y="30" width="1774" height="1210" as="geometry" />
        </mxCell>
        <mxCell id="26dQbN8GHztbTEOQTdlS-8" value="" style="edgeStyle=orthogonalEdgeStyle;rounded=0;orthogonalLoop=1;jettySize=auto;html=1;" edge="1" parent="26dQbN8GHztbTEOQTdlS-2" source="26dQbN8GHztbTEOQTdlS-4" target="26dQbN8GHztbTEOQTdlS-7">
          <mxGeometry relative="1" as="geometry" />
        </mxCell>
        <mxCell id="26dQbN8GHztbTEOQTdlS-4" value="СТАРТ" style="ellipse;whiteSpace=wrap;html=1;" vertex="1" parent="26dQbN8GHztbTEOQTdlS-2">
          <mxGeometry x="354" y="80" width="120" height="80" as="geometry" />
        </mxCell>
        <mxCell id="26dQbN8GHztbTEOQTdlS-6" style="edgeStyle=orthogonalEdgeStyle;rounded=0;orthogonalLoop=1;jettySize=auto;html=1;entryX=0;entryY=0.5;entryDx=0;entryDy=0;dashed=1;" edge="1" parent="26dQbN8GHztbTEOQTdlS-2" source="26dQbN8GHztbTEOQTdlS-5" target="26dQbN8GHztbTEOQTdlS-4">
          <mxGeometry relative="1" as="geometry" />
        </mxCell>
        <mxCell id="26dQbN8GHztbTEOQTdlS-5" value="РЕСТАРТ" style="ellipse;whiteSpace=wrap;html=1;fillColor=#f8cecc;strokeColor=#b85450;" vertex="1" parent="26dQbN8GHztbTEOQTdlS-2">
          <mxGeometry x="104" y="80" width="120" height="80" as="geometry" />
        </mxCell>
        <mxCell id="26dQbN8GHztbTEOQTdlS-10" value="" style="edgeStyle=orthogonalEdgeStyle;rounded=0;orthogonalLoop=1;jettySize=auto;html=1;" edge="1" parent="26dQbN8GHztbTEOQTdlS-2" source="26dQbN8GHztbTEOQTdlS-7" target="26dQbN8GHztbTEOQTdlS-9">
          <mxGeometry relative="1" as="geometry" />
        </mxCell>
        <mxCell id="26dQbN8GHztbTEOQTdlS-7" value="текст Приветствия" style="whiteSpace=wrap;html=1;" vertex="1" parent="26dQbN8GHztbTEOQTdlS-2">
          <mxGeometry x="554" y="90" width="120" height="60" as="geometry" />
        </mxCell>
        <mxCell id="26dQbN8GHztbTEOQTdlS-12" value="" style="edgeStyle=orthogonalEdgeStyle;rounded=0;orthogonalLoop=1;jettySize=auto;html=1;" edge="1" parent="26dQbN8GHztbTEOQTdlS-2" source="26dQbN8GHztbTEOQTdlS-9" target="26dQbN8GHztbTEOQTdlS-11">
          <mxGeometry relative="1" as="geometry" />
        </mxCell>
        <mxCell id="26dQbN8GHztbTEOQTdlS-9" value="Отправляет кружок с APP" style="whiteSpace=wrap;html=1;" vertex="1" parent="26dQbN8GHztbTEOQTdlS-2">
          <mxGeometry x="694" y="230" width="120" height="60" as="geometry" />
        </mxCell>
        <mxCell id="26dQbN8GHztbTEOQTdlS-14" value="" style="edgeStyle=orthogonalEdgeStyle;rounded=0;orthogonalLoop=1;jettySize=auto;html=1;" edge="1" parent="26dQbN8GHztbTEOQTdlS-2" source="26dQbN8GHztbTEOQTdlS-11" target="26dQbN8GHztbTEOQTdlS-13">
          <mxGeometry relative="1" as="geometry" />
        </mxCell>
        <mxCell id="26dQbN8GHztbTEOQTdlS-11" value="текст &quot;Напиши ваше имя&quot;" style="whiteSpace=wrap;html=1;" vertex="1" parent="26dQbN8GHztbTEOQTdlS-2">
          <mxGeometry x="450" y="230" width="164" height="60" as="geometry" />
        </mxCell>
        <mxCell id="26dQbN8GHztbTEOQTdlS-19" value="" style="edgeStyle=orthogonalEdgeStyle;rounded=0;orthogonalLoop=1;jettySize=auto;html=1;" edge="1" parent="26dQbN8GHztbTEOQTdlS-2" source="26dQbN8GHztbTEOQTdlS-13" target="26dQbN8GHztbTEOQTdlS-18">
          <mxGeometry relative="1" as="geometry" />
        </mxCell>
        <mxCell id="26dQbN8GHztbTEOQTdlS-13" value="Сообщение от user" style="whiteSpace=wrap;html=1;fillColor=#d5e8d4;strokeColor=#82b366;" vertex="1" parent="26dQbN8GHztbTEOQTdlS-2">
          <mxGeometry x="228" y="230" width="120" height="60" as="geometry" />
        </mxCell>
        <mxCell id="26dQbN8GHztbTEOQTdlS-15" value="Запись в переменную:&lt;br&gt;ИМЯ" style="shape=document;whiteSpace=wrap;html=1;boundedLbl=1;" vertex="1" parent="26dQbN8GHztbTEOQTdlS-2">
          <mxGeometry x="214" y="360" width="176" height="80" as="geometry" />
        </mxCell>
        <mxCell id="26dQbN8GHztbTEOQTdlS-16" style="edgeStyle=orthogonalEdgeStyle;rounded=0;orthogonalLoop=1;jettySize=auto;html=1;entryX=0.615;entryY=1.051;entryDx=0;entryDy=0;entryPerimeter=0;dashed=1;" edge="1" parent="26dQbN8GHztbTEOQTdlS-2" source="26dQbN8GHztbTEOQTdlS-15" target="26dQbN8GHztbTEOQTdlS-13">
          <mxGeometry relative="1" as="geometry" />
        </mxCell>
        <mxCell id="26dQbN8GHztbTEOQTdlS-21" value="" style="edgeStyle=orthogonalEdgeStyle;rounded=0;orthogonalLoop=1;jettySize=auto;html=1;" edge="1" parent="26dQbN8GHztbTEOQTdlS-2" source="26dQbN8GHztbTEOQTdlS-18" target="26dQbN8GHztbTEOQTdlS-20">
          <mxGeometry relative="1" as="geometry" />
        </mxCell>
        <mxCell id="26dQbN8GHztbTEOQTdlS-18" value="текст &quot;Напишите ваш номер телефона&quot;" style="whiteSpace=wrap;html=1;" vertex="1" parent="26dQbN8GHztbTEOQTdlS-2">
          <mxGeometry x="28" y="230" width="120" height="60" as="geometry" />
        </mxCell>
        <mxCell id="26dQbN8GHztbTEOQTdlS-31" value="" style="edgeStyle=orthogonalEdgeStyle;rounded=0;orthogonalLoop=1;jettySize=auto;html=1;" edge="1" parent="26dQbN8GHztbTEOQTdlS-2" source="26dQbN8GHztbTEOQTdlS-20" target="26dQbN8GHztbTEOQTdlS-30">
          <mxGeometry relative="1" as="geometry">
            <Array as="points">
              <mxPoint x="88" y="765" />
            </Array>
          </mxGeometry>
        </mxCell>
        <mxCell id="26dQbN8GHztbTEOQTdlS-20" value="Сообщение от user" style="whiteSpace=wrap;html=1;fillColor=#d5e8d4;strokeColor=#82b366;" vertex="1" parent="26dQbN8GHztbTEOQTdlS-2">
          <mxGeometry x="28" y="470" width="120" height="60" as="geometry" />
        </mxCell>
        <mxCell id="26dQbN8GHztbTEOQTdlS-22" value="Запись в переменную:&lt;br&gt;номер телефона" style="shape=document;whiteSpace=wrap;html=1;boundedLbl=1;" vertex="1" parent="26dQbN8GHztbTEOQTdlS-2">
          <mxGeometry x="214" y="470" width="176" height="80" as="geometry" />
        </mxCell>
        <mxCell id="26dQbN8GHztbTEOQTdlS-27" style="edgeStyle=orthogonalEdgeStyle;rounded=0;orthogonalLoop=1;jettySize=auto;html=1;entryX=1.012;entryY=0.664;entryDx=0;entryDy=0;entryPerimeter=0;dashed=1;" edge="1" parent="26dQbN8GHztbTEOQTdlS-2" source="26dQbN8GHztbTEOQTdlS-22" target="26dQbN8GHztbTEOQTdlS-20">
          <mxGeometry relative="1" as="geometry" />
        </mxCell>
        <mxCell id="26dQbN8GHztbTEOQTdlS-32" style="edgeStyle=orthogonalEdgeStyle;rounded=0;orthogonalLoop=1;jettySize=auto;html=1;entryX=0;entryY=0.5;entryDx=0;entryDy=0;" edge="1" parent="26dQbN8GHztbTEOQTdlS-2" source="26dQbN8GHztbTEOQTdlS-30" target="26dQbN8GHztbTEOQTdlS-18">
          <mxGeometry relative="1" as="geometry">
            <Array as="points">
              <mxPoint x="230" y="840" />
              <mxPoint x="8" y="840" />
              <mxPoint x="8" y="260" />
            </Array>
          </mxGeometry>
        </mxCell>
        <mxCell id="26dQbN8GHztbTEOQTdlS-33" value="не проходит" style="edgeLabel;html=1;align=center;verticalAlign=middle;resizable=0;points=[];" vertex="1" connectable="0" parent="26dQbN8GHztbTEOQTdlS-32">
          <mxGeometry x="-0.5875" y="2" relative="1" as="geometry">
            <mxPoint as="offset" />
          </mxGeometry>
        </mxCell>
        <mxCell id="26dQbN8GHztbTEOQTdlS-35" value="" style="edgeStyle=orthogonalEdgeStyle;rounded=0;orthogonalLoop=1;jettySize=auto;html=1;" edge="1" parent="26dQbN8GHztbTEOQTdlS-2" source="26dQbN8GHztbTEOQTdlS-30">
          <mxGeometry relative="1" as="geometry">
            <mxPoint x="362" y="765" as="targetPoint" />
          </mxGeometry>
        </mxCell>
        <mxCell id="26dQbN8GHztbTEOQTdlS-30" value="номер проходит валидацию&amp;nbsp;" style="rhombus;whiteSpace=wrap;html=1;" vertex="1" parent="26dQbN8GHztbTEOQTdlS-2">
          <mxGeometry x="174" y="710" width="112" height="110" as="geometry" />
        </mxCell>
        <mxCell id="26dQbN8GHztbTEOQTdlS-36" value="текст &quot;Вы являетесь владельцем?&quot;" style="rhombus;whiteSpace=wrap;html=1;" vertex="1" parent="26dQbN8GHztbTEOQTdlS-2">
          <mxGeometry x="361" y="717.5" width="106" height="95" as="geometry" />
        </mxCell>
        <mxCell id="26dQbN8GHztbTEOQTdlS-3" value="NLU" style="swimlane;whiteSpace=wrap;html=1;" vertex="1" parent="26dQbN8GHztbTEOQTdlS-1">
          <mxGeometry x="830" y="30" width="820" height="1130" as="geometry" />
        </mxCell>
        <mxCell id="26dQbN8GHztbTEOQTdlS-17" value="&lt;h1&gt;Переменные&lt;/h1&gt;&lt;div&gt;-ИМЯ&lt;/div&gt;&lt;div&gt;-Ном телефона&lt;/div&gt;&lt;div&gt;-вопросы&lt;/div&gt;&lt;div&gt;-проблема клиента&lt;/div&gt;&lt;div&gt;-&lt;/div&gt;" style="text;html=1;spacing=5;spacingTop=-20;whiteSpace=wrap;overflow=hidden;rounded=0;" vertex="1" parent="1">
          <mxGeometry x="140" y="-1050" width="350" height="120" as="geometry" />
        </mxCell>
      </root>
    </mxGraphModel>
  </diagram>
</mxfile>
